<svg width="157" height="653" viewBox="0 0 157 653" fill="none" xmlns="http://www.w3.org/2000/svg">
<path d="M746.688 -23.9449L746.687 -23.9426C729.733 42.6342 703.716 107.427 664.896 164.285L664.894 164.287C636.383 206.453 601.009 243.733 561.707 275.984L560.549 276.934L562.046 276.87C675.051 272.047 789.456 310.633 876.207 383.389C847.365 406.907 816.472 428.059 782.824 444.026L782.82 444.028C712.694 477.953 634.538 494.152 556.732 494.113L555.378 494.112L556.406 494.993C575.776 511.571 593.857 529.716 609.794 549.649L609.798 549.654C632.834 577.67 650.251 609.722 664.414 643.016C662.753 643.323 661.091 643.633 659.429 643.942C642.412 647.11 625.381 650.281 608.105 651.43L608.101 651.43C537.131 656.693 465.423 639.922 401.963 608.248C329.819 572.077 266.424 515.78 228.079 444.235L228.072 444.221L228.064 444.209C227.29 442.953 226.624 441.566 225.957 440.133C225.874 439.956 225.792 439.779 225.709 439.601C225.126 438.345 224.531 437.065 223.863 435.851C222.336 433.082 220.38 430.578 217.126 429.329C159.462 400.605 111.104 355.102 74.8853 302.138C30.5786 237.116 3.26663 159.812 0.942739 80.9608L0.942558 80.9562C-0.25431 50.0025 3.94709 19.1489 10.2127 -11.1347L10.4168 -11.0441C27.0721 -3.64949 43.7271 3.74493 59.4105 12.9976L59.4121 12.9986C97.0055 34.9893 130.559 63.817 158.357 97.3235L159.25 98.4002L159.242 97.0012C158.775 19.9436 174.878 -57.4824 207.979 -127.134L207.981 -127.137C224.139 -161.737 245.688 -193.471 269.791 -222.996C342.594 -136.261 381.117 -21.8236 376.357 91.2141L376.294 92.7219L377.245 91.5502C420.137 38.7177 472.917 -6.28099 532.968 -38.4822L532.969 -38.4831C604.471 -77.1805 683.993 -98.5386 763.969 -111.239L764.669 -110.539C759.519 -81.4927 754.097 -52.4795 746.688 -23.9449Z" stroke="#D9C287"/>
</svg>
